<svg height="512pt" viewBox="-32 0 512 512.001" width="512pt" xmlns="http://www.w3.org/2000/svg" style="enable-background:new 0 0 512 512;fill:#d3d3d3">
<path d="m318 58h-1c-40.25 0-73 32.746094-73 73s32.75 73 73 73h1c40.253906 0 73-32.746094 73-73s-32.746094-73-73-73zm0 131h-1c-31.980469 0-58-26.019531-58-58s26.019531-58 58-58h1c31.980469 0 58 26.019531 58 58s-26.019531 58-58 58zm0 0"/><path d="m426 108.5h-7.976562c-2.582032-11.546875-7.1875-22.652344-13.539063-32.664062l5.648437-5.648438c8.769532-8.769531 8.769532-23.046875 0-31.820312-8.773437-8.769532-23.046874-8.769532-31.820312.003906l-5.648438 5.644531c-10.011718-6.351563-21.117187-10.953125-32.664062-13.539063v-7.976562c0-12.40625-10.09375-22.5-22.5-22.5s-22.5 10.09375-22.5 22.5v7.976562c-11.542969 2.585938-22.652344 7.1875-32.664062 13.539063l-5.648438-5.648437c-8.769531-8.769532-23.046875-8.769532-31.820312.003906-8.710938 8.710937-8.757813 22.84375-.167969 31.628906h-187.199219c-20.675781 0-37.5 16.824219-37.5 37.5v367c0 20.679688 16.824219 37.5 37.5 37.5h265c20.679688 0 37.5-16.820312 37.5-37.5v-30c0-4.140625-3.359375-7.5-7.5-7.5s-7.5 3.359375-7.5 7.5v30c0 12.40625-10.09375 22.5-22.5 22.5h-265c-12.40625 0-22.5-10.09375-22.5-22.5v-367c0-12.40625 10.09375-22.5 22.5-22.5h187.867188c-2.417969 4.839844-4.46875 9.851562-6.097657 15h-176.769531c-6.890625 0-12.5 5.609375-12.5 12.5v25c0 4.144531 3.359375 7.5 7.5 7.5h153.90625c4.125 5.175781 10.476562 8.5 17.59375 8.5h7.976562c2.582032 11.546875 7.1875 22.652344 13.539063 32.664062l-5.644531 5.648438c-8.773438 8.773438-8.773438 23.046875 0 31.820312 8.769531 8.769532 23.046875 8.769532 31.820312 0l5.644532-5.648437c10.011718 6.351563 21.121093 10.957031 32.664062 13.539063v205.476562h-250v-264.5c0-4.144531-3.359375-7.5-7.5-7.5s-7.5 3.355469-7.5 7.5v267c0 6.894531 5.609375 12.5 12.5 12.5h255c6.894531 0 12.5-5.605469 12.5-12.5v-178.789062c2.347656.832031 4.871094 1.289062 7.5 1.289062s5.152344-.457031 7.5-1.289062v148.789062c0 4.144531 3.359375 7.5 7.5 7.5s7.5-3.355469 7.5-7.5v-177.976562c11.546875-2.585938 22.652344-7.1875 32.664062-13.539063l5.648438 5.648437c8.773438 8.769532 23.046875 8.769532 31.820312-.003906 8.773438-8.769531 8.773438-23.046875 0-31.820312l-5.644531-5.644532c6.347657-10.015624 10.953125-21.121093 13.539063-32.664062h7.976562c12.40625 0 22.5-10.09375 22.5-22.5s-10.097656-22.5-22.503906-22.5zm-381 6.5h148.199219c-3.910157 3.863281-6.414063 9.144531-6.671875 15h-141.527344zm381 23.5h-14.175781c-3.691407 0-6.832031 2.6875-7.40625 6.332031-2.144531 13.589844-7.570313 26.675781-15.6875 37.84375-2.167969 2.984375-1.84375 7.101563.765625 9.710938l10.03125 10.03125c2.921875 2.925781 2.921875 7.683593 0 10.605469-2.925782 2.925781-7.683594 2.921874-10.609375 0l-10.03125-10.03125c-2.605469-2.605469-6.726563-2.933594-9.710938-.761719-11.167969 8.117187-24.253906 13.539062-37.84375 15.683593-3.644531.578126-6.332031 3.71875-6.332031 7.410157v14.175781c0 4.136719-3.363281 7.5-7.5 7.5-4.132812 0-7.5-3.363281-7.5-7.5v-14.175781c0-3.691407-2.683594-6.832031-6.328125-7.410157-13.589844-2.144531-26.675781-7.566406-37.84375-15.683593-1.324219-.960938-2.871094-1.433594-4.40625-1.433594-1.933594 0-3.855469.742187-5.308594 2.195313l-10.027343 10.03125c-2.925782 2.925781-7.683594 2.921874-10.609376 0-2.921874-2.925782-2.921874-7.683594 0-10.605469l10.03125-10.03125c2.609376-2.609375 2.933594-6.730469.765626-9.710938-8.117188-11.167969-13.542969-24.257812-15.6875-37.847656-.574219-3.644531-3.714844-6.328125-7.40625-6.328125h-14.179688c-4.136719 0-7.5-3.363281-7.5-7.5s3.363281-7.5 7.5-7.5h14.175781c3.691407 0 6.832031-2.6875 7.410157-6.332031 2.144531-13.589844 7.566406-26.675781 15.683593-37.84375 2.171875-2.984375 1.847657-7.105469-.761719-9.714844l-10.03125-10.027344c-2.925781-2.925781-2.925781-7.683593 0-10.605469 2.925782-2.925781 7.683594-2.925781 10.605469-.003906l10.03125 10.03125c2.609375 2.609375 6.726563 2.9375 9.714844.765625 11.164063-8.117187 24.25-13.542969 37.839844-15.6875 3.648437-.574219 6.332031-3.71875 6.332031-7.40625v-14.175781c0-4.136719 3.363281-7.5 7.5-7.5s7.5 3.363281 7.5 7.5v14.175781c0 3.691407 2.683594 6.832031 6.332031 7.410157 13.589844 2.144531 26.675781 7.566406 37.84375 15.683593 2.984375 2.171875 7.101563 1.847657 9.710938-.761719l10.03125-10.03125c2.925781-2.925781 7.683593-2.921874 10.605469 0 2.925781 2.921876 2.925781 7.683594 0 10.605469l-10.03125 10.03125c-2.609376 2.609375-2.933594 6.726563-.765626 9.710938 8.121094 11.167969 13.542969 24.253906 15.6875 37.84375.574219 3.648437 3.71875 6.332031 7.410157 6.332031h14.175781c4.132812 0 7.5 3.363281 7.5 7.5s-3.363281 7.5-7.5 7.5zm0 0"/><path d="m144 467c-4.140625 0-7.5 3.355469-7.5 7.5s3.359375 7.5 7.5 7.5h52c4.140625 0 7.5-3.355469 7.5-7.5s-3.359375-7.5-7.5-7.5zm0 0"/><path d="m211.519531 369.566406h-.003906c-.445313 0-1.292969-.121094-1.945313-.929687l-20.707031-25.75c-3.527343-4.382813-8.78125-6.75-14.390625-6.515625-5.617187.242187-10.636718 3.058594-13.773437 7.726562l-29.144531 43.390625c-.644532.960938-1.621094 1.085938-2.074219 1.105469-.5 0-1.425781-.144531-2.074219-1.101562l-11.015625-16.316407c-3.164063-4.691406-8.21875-7.496093-13.871094-7.699219-5.660156-.191406-10.898437 2.230469-14.394531 6.675782l-24.523438 31.214844c-2.558593 3.253906-1.992187 7.972656 1.265626 10.53125 1.375 1.078124 3.007812 1.601562 4.628906 1.601562 2.222656 0 4.421875-.984375 5.902344-2.867188l24.523437-31.210937c.683594-.871094 1.585937-.960937 2.054687-.953125.476563.015625 1.363282.183594 1.984376 1.097656l11.011718 16.320313c3.261719 4.828125 8.683594 7.710937 14.503906 7.710937h.023438c5.832031-.007812 11.253906-2.902344 14.507812-7.746094l29.140626-43.390624c.613281-.910157 1.496093-1.082032 1.96875-1.101563.472656-.007813 1.367187.070313 2.054687.929687l20.710937 25.746094c3.335938 4.148438 8.296876 6.527344 13.617188 6.53125h.019531c5.3125 0 10.269531-2.367187 13.609375-6.5l51.203125-63.351562c2.605469-3.222656 2.105469-7.945313-1.117187-10.550782-3.222656-2.601562-7.945313-2.101562-10.546875 1.121094l-51.207031 63.351563c-.652344.808593-1.496094.929687-1.941407.929687zm0 0"/><path d="m69 198h35c4.140625 0 7.5-3.355469 7.5-7.5s-3.359375-7.5-7.5-7.5h-35c-4.140625 0-7.5 3.355469-7.5 7.5s3.359375 7.5 7.5 7.5zm0 0"/><path d="m69 228h65c4.140625 0 7.5-3.355469 7.5-7.5s-3.359375-7.5-7.5-7.5h-65c-4.140625 0-7.5 3.355469-7.5 7.5s3.359375 7.5 7.5 7.5zm0 0"/><path d="m69 258h45c4.140625 0 7.5-3.355469 7.5-7.5s-3.359375-7.5-7.5-7.5h-45c-4.140625 0-7.5 3.355469-7.5 7.5s3.359375 7.5 7.5 7.5zm0 0"/><path d="m69 288h75c4.140625 0 7.5-3.355469 7.5-7.5s-3.359375-7.5-7.5-7.5h-75c-4.140625 0-7.5 3.355469-7.5 7.5s3.359375 7.5 7.5 7.5zm0 0"/><path d="m209 273h-35c-4.140625 0-7.5 3.355469-7.5 7.5s3.359375 7.5 7.5 7.5h35c4.140625 0 7.5-3.355469 7.5-7.5s-3.359375-7.5-7.5-7.5zm0 0"/><path d="m167 243h-23c-4.140625 0-7.5 3.355469-7.5 7.5s3.359375 7.5 7.5 7.5h23c4.140625 0 7.5-3.355469 7.5-7.5s-3.359375-7.5-7.5-7.5zm0 0"/><path d="m317.5 102.167969c-15.898438 0-28.832031 12.933593-28.832031 28.832031s12.933593 28.832031 28.832031 28.832031 28.832031-12.933593 28.832031-28.832031-12.933593-28.832031-28.832031-28.832031zm0 42.664062c-7.628906 0-13.832031-6.203125-13.832031-13.832031s6.207031-13.832031 13.832031-13.832031c7.628906 0 13.832031 6.203125 13.832031 13.832031s-6.203125 13.832031-13.832031 13.832031zm0 0"/></svg>